<svg xmlns="http://www.w3.org/2000/svg" width="60" height="60" viewBox="0 0 60 60">
    <g fill="#F66637" fill-rule="evenodd">
        <path fill-rule="nonzero" d="M30 60C13.431 60 0 46.569 0 30 0 13.431 13.431 0 30 0c16.569 0 30 13.431 30 30 0 16.569-13.431 30-30 30zm0-1.176c15.919 0 28.824-12.905 28.824-28.824C58.824 14.081 45.919 1.176 30 1.176 14.081 1.176 1.176 14.081 1.176 30c0 15.919 12.905 28.824 28.824 28.824z"/>
        <path d="M27.59 24.206c-1.262.036-2.367.41-3.314 1.123-.947.712-1.61 1.691-1.989 2.936v8.794h-1.353v-14.07h1.299v3.463c.487-.992 1.132-1.8 1.935-2.422.802-.622 1.664-.979 2.584-1.069.18-.018.343-.027.487-.027h.352v1.272zm7.036 13.123c-1.082 0-2.12-.18-3.112-.54a7.194 7.194 0 0 1-2.598-1.624l.677-.92c.758.685 1.542 1.19 2.354 1.515.812.325 1.705.487 2.679.487 1.227 0 2.214-.257 2.963-.771.748-.514 1.123-1.231 1.123-2.151 0-.433-.095-.799-.284-1.096-.19-.298-.474-.55-.853-.758a7.033 7.033 0 0 0-1.407-.555 47.137 47.137 0 0 0-1.948-.514c-.794-.18-1.484-.36-2.07-.54-.586-.181-1.069-.398-1.448-.65a2.505 2.505 0 0 1-.852-.92c-.19-.361-.284-.821-.284-1.38 0-.704.135-1.317.406-1.84.27-.523.645-.956 1.123-1.3a5.152 5.152 0 0 1 1.65-.77 7.462 7.462 0 0 1 1.99-.257c1.1 0 2.074.185 2.921.554.848.37 1.507.844 1.976 1.421l-.758.73c-.469-.54-1.078-.946-1.826-1.217a6.991 6.991 0 0 0-2.395-.406c-.523 0-1.015.054-1.475.162a3.55 3.55 0 0 0-1.204.515 2.533 2.533 0 0 0-.812.906c-.198.37-.297.807-.297 1.312 0 .415.067.749.203 1.002.135.252.351.469.65.649.297.18.68.338 1.15.473.468.136 1.027.285 1.677.447.884.216 1.668.424 2.354.622.685.199 1.258.442 1.718.73.46.29.812.632 1.055 1.03.244.396.366.901.366 1.514 0 1.263-.492 2.269-1.475 3.017-.983.75-2.296 1.123-3.937 1.123z"/>
    </g>
</svg>
